HIERARCHY
ROOT Hips
{
	OFFSET 0.000000 0.000000 0.000000
	CHANNELS 6 Xposition Yposition Zposition Xrotation Yrotation Zrotation
	JOINT LeftUpLeg_virtual
	{
		OFFSET 0.000000 0.000000 0.000000
		CHANNELS 3 Xrotation Yrotation Zrotation
		JOINT LeftUpLeg
		{
			OFFSET 13.026900 -6.336304 -1.092800
			CHANNELS 3 Xrotation Yrotation Zrotation
			JOINT LeftLeg
			{
				OFFSET 0.524474 -46.096886 9.782700
				CHANNELS 3 Xrotation Yrotation Zrotation
				JOINT LeftFoot
				{
					OFFSET -0.524474 -53.427422 -12.948200
					CHANNELS 3 Xrotation Yrotation Zrotation
					JOINT LeftToeBase
					{
						OFFSET 0.192200 -14.009700 16.364100
						CHANNELS 3 Xrotation Yrotation Zrotation
						JOINT LeftToe_End
						{
							OFFSET -1.784700 -0.561700 9.474800
							CHANNELS 3 Xrotation Yrotation Zrotation
							End Site
							{
								OFFSET 0 0 0
							}
						}
					}
				}
			}
		}
	}
	JOINT RightUpLeg_virtual
	{
		OFFSET 0.000000 0.000000 0.000000
		CHANNELS 3 Xrotation Yrotation Zrotation
		JOINT RightUpLeg
		{
			OFFSET -12.883000 -6.336304 -1.092800
			CHANNELS 3 Xrotation Yrotation Zrotation
			JOINT RightLeg
			{
				OFFSET -0.524587 -46.096825 9.782800
				CHANNELS 3 Xrotation Yrotation Zrotation
				JOINT RightFoot
				{
					OFFSET 0.524587 -53.427383 -12.948300
					CHANNELS 3 Xrotation Yrotation Zrotation
					JOINT RightToeBase
					{
						OFFSET -0.192200 -14.009700 16.364100
						CHANNELS 3 Xrotation Yrotation Zrotation
						JOINT RightToe_End
						{
							OFFSET 1.784700 -0.561700 9.474800
							CHANNELS 3 Xrotation Yrotation Zrotation
							End Site
							{
								OFFSET 0 0 0
							}
						}
					}
				}
			}
		}
	}
	JOINT Spine_virtual
	{
		OFFSET 0.000000 0.000000 0.000000
		CHANNELS 3 Xrotation Yrotation Zrotation
		JOINT Spine
		{
			OFFSET 0.072000 7.257294 -0.789700
			CHANNELS 3 Xrotation Yrotation Zrotation
			JOINT Spine1
			{
				OFFSET 0.000000 12.508769 -0.658067
				CHANNELS 3 Xrotation Yrotation Zrotation
				JOINT Spine1_split
				{
					OFFSET 0.000000 12.508769 -0.658067
					CHANNELS 3 Xrotation Yrotation Zrotation
					JOINT Spine2
					{
						OFFSET 0.000000 12.508769 -0.658067
						CHANNELS 3 Xrotation Yrotation Zrotation
						JOINT Neck_virtual
						{
							OFFSET 0.000000 0.000000 0.000000
							CHANNELS 3 Xrotation Yrotation Zrotation
							JOINT Neck
							{
								OFFSET 0.000000 14.033295 7.520400
								CHANNELS 3 Xrotation Yrotation Zrotation
								JOINT Head
								{
									OFFSET 0.000000 8.198502 5.703100
									CHANNELS 3 Xrotation Yrotation Zrotation
									JOINT HeadTop_End
									{
										OFFSET 0.000000 17.760803 13.332701
										CHANNELS 3 Xrotation Yrotation Zrotation
										End Site
										{
											OFFSET 0 0 0
										}
									}
								}
							}
						}
						JOINT LeftShoulder_virtual
						{
							OFFSET 0.000000 0.000000 0.000000
							CHANNELS 3 Xrotation Yrotation Zrotation
							JOINT LeftShoulder
							{
								OFFSET 6.292450 5.785301 -0.669000
								CHANNELS 3 Xrotation Yrotation Zrotation
								JOINT LeftShoulder_split
								{
									OFFSET 6.292450 5.785301 -0.669000
									CHANNELS 3 Xrotation Yrotation Zrotation
									JOINT LeftArm
									{
										OFFSET 13.907140 -6.093903 1.965100
										CHANNELS 3 Xrotation Yrotation Zrotation
										JOINT LeftForeArm
										{
											OFFSET 34.140198 0.000000 0.000000
											CHANNELS 3 Xrotation Yrotation Zrotation
											JOINT LeftHand
											{
												OFFSET 40.960209 0.000000 0.000000
												CHANNELS 3 Xrotation Yrotation Zrotation
												End Site
												{
													OFFSET 0 0 0
												}
											}
										}
									}
								}
							}
						}
						JOINT RightShoulder_virtual
						{
							OFFSET 0.000000 0.000000 0.000000
							CHANNELS 3 Xrotation Yrotation Zrotation
							JOINT RightShoulder
							{
								OFFSET -6.292450 5.785301 -0.669000
								CHANNELS 3 Xrotation Yrotation Zrotation
								JOINT RightShoulder_split
								{
									OFFSET -6.292450 5.785301 -0.669000
									CHANNELS 3 Xrotation Yrotation Zrotation
									JOINT RightArm
									{
										OFFSET -13.907140 -6.093903 1.965100
										CHANNELS 3 Xrotation Yrotation Zrotation
										JOINT RightForeArm
										{
											OFFSET -34.140198 0.000000 0.000000
											CHANNELS 3 Xrotation Yrotation Zrotation
											JOINT RightHand
											{
												OFFSET -40.960209 0.000000 0.000000
												CHANNELS 3 Xrotation Yrotation Zrotation
												End Site
												{
													OFFSET 0 0 0
												}
											}
										}
									}
								}
							}
						}
					}
				}
			}
		}
	}
}
MOTION
Frames: 5
Frame Time: 0.03333333
2.559924 112.563080 -18.284786 0.000000 0.000000 0.000000 -5.006441 -16.243030 4.409197 -12.980100 18.751282 8.647502 21.514958 9.179734 2.315793 4.017615 21.025872 -18.134190 -2.784370 -1.476076 0.801381 0.000000 0.000000 0.000000 -4.048744 -17.940825 4.524563 -2.548784 -26.902848 -7.465609 25.130991 9.701238 -4.075923 -19.624749 -22.525337 14.524549 2.171783 1.746787 -14.869409 0.000000 0.000000 0.000000 -3.805295 -14.671557 3.577388 7.886756 -6.007572 -1.704481 1.487133 -0.505768 -0.376005 0.091175 0.203638 -0.042199 0.000000 0.000000 0.000000 2.433845 1.506593 0.246747 3.809912 10.125779 -2.163195 -18.935619 3.631249 -4.333188 0.000000 0.000000 0.000000 1.403929 0.205453 -0.942384 -1.167491 -12.976194 -16.577950 1.817542 -6.523785 0.548305 8.637205 13.854904 -33.258069 43.817180 -84.795378 41.098054 0.000000 0.000000 0.000000 2.210991 0.273266 -0.093812 -5.829838 18.114463 9.055236 1.243357 -3.926621 7.531888 15.449791 32.635293 40.374239 -149.872969 80.338652 150.416557 0.000000 0.000000 0.000000 
1.601445 112.726929 -18.050632 0.000000 0.000000 0.000000 -5.000242 -17.728405 4.249830 -12.602189 19.091079 8.812268 21.750377 9.747166 2.435830 4.342542 21.887148 -18.274268 -3.611858 -1.510523 0.381187 0.000000 0.000000 0.000000 -4.034691 -19.475784 4.376191 -2.161287 -26.603710 -7.183091 24.537972 9.928160 -3.980262 -19.652693 -22.041133 14.080164 2.015482 1.631152 -14.659519 0.000000 0.000000 0.000000 -3.719744 -16.237089 3.453209 7.957562 -5.808406 -1.697373 1.494757 -0.461561 -0.420128 0.087065 0.197793 -0.041897 0.000000 0.000000 0.000000 2.404634 1.544054 0.222693 3.529848 10.143201 -1.881049 -18.647593 3.233891 -4.427838 0.000000 0.000000 0.000000 1.329160 0.253364 -1.003321 -1.187355 -12.861860 -16.629924 1.798778 -6.490484 0.618923 7.787715 12.974992 -33.554862 42.164025 -84.580650 39.430279 0.000000 0.000000 0.000000 2.191142 0.330292 -0.128927 -5.748745 17.947522 8.845643 1.075459 -4.007944 7.375410 15.656639 32.437658 39.997311 -152.414975 79.856830 152.901612 0.000000 0.000000 0.000000 
0.696993 112.951935 -17.774693 0.000000 0.000000 0.000000 -4.984203 -19.296053 4.071489 -12.531340 19.389859 9.013889 22.066598 10.082654 2.481004 4.737335 22.262226 -18.106804 -4.445879 -1.518799 -0.032208 0.000000 0.000000 0.000000 -4.037741 -20.965107 4.197080 -1.716956 -26.312262 -6.951061 23.878814 10.054262 -3.789221 -19.606808 -21.477038 13.698580 1.754101 1.532681 -14.294378 0.000000 0.000000 0.000000 -3.623514 -17.726994 3.306227 8.018557 -5.535299 -1.694601 1.506350 -0.406777 -0.466884 0.083276 0.194989 -0.038725 0.000000 0.000000 0.000000 2.388321 1.595679 0.190648 3.236411 10.166946 -1.599579 -18.402621 2.739495 -4.595686 0.000000 0.000000 0.000000 1.253484 0.316986 -1.066455 -1.210647 -12.772019 -16.655444 1.769894 -6.449659 0.658744 6.966574 12.119754 -33.838280 40.656339 -84.421138 37.924335 0.000000 0.000000 0.000000 2.170109 0.399050 -0.167855 -5.684856 17.768642 8.701173 0.913366 -4.086581 7.216949 15.927393 32.138376 39.600190 -154.747061 79.268314 155.178401 0.000000 0.000000 0.000000 
-0.121809 113.248062 -17.429684 0.000000 0.000000 0.000000 -4.949179 -20.898292 3.874105 -12.865389 19.527671 9.230444 22.393287 10.044947 2.485499 5.322027 21.942937 -17.746143 -5.262617 -1.513080 -0.375560 0.000000 0.000000 0.000000 -4.021492 -22.413759 3.995440 -1.234856 -25.981852 -6.785846 23.161472 10.096407 -3.529421 -19.388141 -20.845590 13.493126 1.292469 1.475709 -13.816335 0.000000 0.000000 0.000000 -3.511691 -19.179711 3.142831 8.069062 -5.197934 -1.678935 1.521546 -0.346261 -0.512539 0.082207 0.193241 -0.033716 0.000000 0.000000 0.000000 2.384994 1.656258 0.153750 2.939426 10.206072 -1.329849 -18.230168 2.159174 -4.831408 0.000000 0.000000 0.000000 1.176649 0.389877 -1.129301 -1.236851 -12.717643 -16.657735 1.739704 -6.366771 0.655607 6.221317 11.325138 -34.098442 39.265545 -84.314833 36.546344 0.000000 0.000000 0.000000 2.148729 0.473510 -0.210138 -5.638812 17.588053 8.624874 0.772276 -4.169343 7.061201 16.276018 31.788260 39.158823 -156.735042 78.601878 157.117451 0.000000 0.000000 0.000000 
-0.843535 113.642357 -17.048641 0.000000 0.000000 0.000000 -4.864671 -22.454172 3.671320 -13.611564 19.418200 9.372567 22.603948 9.589829 2.506050 6.063892 20.855300 -17.212806 -5.953890 -1.494553 -0.645166 0.000000 0.000000 0.000000 -3.963058 -23.830612 3.781983 -0.676907 -25.570107 -6.650165 22.351813 10.043683 -3.224829 -19.101206 -20.173403 13.387050 0.828066 1.451412 -13.251008 0.000000 0.000000 0.000000 -3.346290 -20.606153 2.963123 8.101099 -4.808669 -1.636264 1.536771 -0.279561 -0.554409 0.082088 0.194313 -0.028516 0.000000 0.000000 0.000000 2.393834 1.720326 0.114738 2.649991 10.269412 -1.079616 -18.155413 1.502296 -5.122724 0.000000 0.000000 0.000000 1.102625 0.467679 -1.190759 -1.264843 -12.707248 -16.643644 1.692866 -6.193794 0.592997 5.581125 10.604313 -34.320710 37.922720 -84.246702 35.221435 0.000000 0.000000 0.000000 2.124217 0.549229 -0.254631 -5.612651 17.414399 8.621930 0.651902 -4.263332 6.902296 16.694280 31.444203 38.668307 -158.270277 77.917323 158.615939 0.000000 0.000000 0.000000 
